<?xml version="1.0" encoding="utf-8"?>
<!-- Generator: Adobe Illustrator 22.0.1, SVG Export Plug-In . SVG Version: 6.00 Build 0)  -->
<svg version="1.1" id="Layer_1" focusable="false" xmlns="http://www.w3.org/2000/svg" xmlns:xlink="http://www.w3.org/1999/xlink"
	 x="0px" y="0px" viewBox="0 0 446 452.4" style="enable-background:new 0 0 446 452.4;" xml:space="preserve">
<style type="text/css">
	.st0{fill:#CDCFD0;stroke:#000000;stroke-width:0.25;stroke-miterlimit:10;}
</style>
<rect x="52.5" y="20" class="st0" width="367" height="374.5"/>
<path shape-rendering="auto" image-rendering="auto" color-rendering="auto" color-interpolation="sRGB" d="M54.1,421h344l-4.1,4.1
	c-13.5,13.2,6.6,33.3,19.8,19.8l26.5-26.5c6.2-4.6,7.5-13.4,2.9-19.6c-0.5-0.6-0.9-1.1-1.5-1.7l-28-28c-2.6-2.7-6.3-4.2-10-4.2
	c-7.7,0-14,6.3-14,14c0,3.7,1.5,7.4,4.2,10l4.1,4.1H306V379c0.1-7.9-6.3-14.3-14.2-14.2c-7.7,0.2-13.9,6.5-13.8,14.2v14h-56v-14
	c0.1-7.9-6.3-14.3-14.2-14.2c-7.7,0.2-13.9,6.5-13.8,14.2v14h-56v-14c0.1-7.9-6.3-14.3-14.2-14.2c-7.7,0.2-13.9,6.5-13.8,14.2v14
	H54.1v-56h14c18.9,0.3,18.9-28.2,0-28h-14v-56h14c18.9,0.3,18.9-28.2,0-28h-14v-56h14c18.9,0.3,18.9-28.2,0-28h-14v-92l4.1,4.1
	c5.4,5.5,14.2,5.7,19.8,0.2c5.5-5.4,5.7-14.2,0.2-19.8c-0.1-0.1-0.2-0.2-0.2-0.2l-28-28c-2.7-2.7-6.3-4.1-10.1-4.1l0,0
	c-3.7,0.1-7.1,1.5-9.7,4.1l-28,28C-3.3,38.7-3.4,47.5,2,53c5.4,5.5,14.2,5.7,19.8,0.2c0.1-0.1,0.2-0.2,0.2-0.2l4.1-4.1v372l0,0"/>
</svg>
